<mxfile host="Electron" agent="Mozilla/5.0 (Windows NT 10.0; Win64; x64) AppleWebKit/537.36 (KHTML, like Gecko) draw.io/24.7.17 Chrome/128.0.6613.36 Electron/32.0.1 Safari/537.36" version="24.7.17">
  <diagram name="Page-1" id="Z9PlCmLsBD-gbKbMcJiN">
    <mxGraphModel dx="1278" dy="656" grid="1" gridSize="10" guides="1" tooltips="1" connect="1" arrows="1" fold="1" page="1" pageScale="1" pageWidth="850" pageHeight="1100" math="0" shadow="0">
      <root>
        <mxCell id="0" />
        <mxCell id="1" parent="0" />
        <mxCell id="nsTeJTZyOkKHgvpDhPuL-1" value="Students" style="shape=table;startSize=30;container=1;collapsible=0;childLayout=tableLayout;" vertex="1" parent="1">
          <mxGeometry x="200" y="10" width="310" height="70" as="geometry" />
        </mxCell>
        <mxCell id="nsTeJTZyOkKHgvpDhPuL-2" value="" style="shape=tableRow;horizontal=0;startSize=0;swimlaneHead=0;swimlaneBody=0;strokeColor=inherit;top=0;left=0;bottom=0;right=0;collapsible=0;dropTarget=0;fillColor=none;points=[[0,0.5],[1,0.5]];portConstraint=eastwest;" vertex="1" parent="nsTeJTZyOkKHgvpDhPuL-1">
          <mxGeometry y="30" width="310" height="40" as="geometry" />
        </mxCell>
        <mxCell id="nsTeJTZyOkKHgvpDhPuL-3" value="&lt;b&gt;&lt;u&gt;ID&lt;/u&gt;&lt;/b&gt;" style="shape=partialRectangle;html=1;whiteSpace=wrap;connectable=0;strokeColor=inherit;overflow=hidden;fillColor=none;top=0;left=0;bottom=0;right=0;pointerEvents=1;" vertex="1" parent="nsTeJTZyOkKHgvpDhPuL-2">
          <mxGeometry width="70" height="40" as="geometry">
            <mxRectangle width="70" height="40" as="alternateBounds" />
          </mxGeometry>
        </mxCell>
        <mxCell id="nsTeJTZyOkKHgvpDhPuL-4" value="Name" style="shape=partialRectangle;html=1;whiteSpace=wrap;connectable=0;strokeColor=inherit;overflow=hidden;fillColor=none;top=0;left=0;bottom=0;right=0;pointerEvents=1;" vertex="1" parent="nsTeJTZyOkKHgvpDhPuL-2">
          <mxGeometry x="70" width="70" height="40" as="geometry">
            <mxRectangle width="70" height="40" as="alternateBounds" />
          </mxGeometry>
        </mxCell>
        <mxCell id="nsTeJTZyOkKHgvpDhPuL-5" value="Age" style="shape=partialRectangle;html=1;whiteSpace=wrap;connectable=0;strokeColor=inherit;overflow=hidden;fillColor=none;top=0;left=0;bottom=0;right=0;pointerEvents=1;" vertex="1" parent="nsTeJTZyOkKHgvpDhPuL-2">
          <mxGeometry x="140" width="70" height="40" as="geometry">
            <mxRectangle width="70" height="40" as="alternateBounds" />
          </mxGeometry>
        </mxCell>
        <mxCell id="nsTeJTZyOkKHgvpDhPuL-6" value="Gender" style="shape=partialRectangle;html=1;whiteSpace=wrap;connectable=0;strokeColor=inherit;overflow=hidden;fillColor=none;top=0;left=0;bottom=0;right=0;pointerEvents=1;" vertex="1" parent="nsTeJTZyOkKHgvpDhPuL-2">
          <mxGeometry x="210" width="100" height="40" as="geometry">
            <mxRectangle width="100" height="40" as="alternateBounds" />
          </mxGeometry>
        </mxCell>
        <mxCell id="nsTeJTZyOkKHgvpDhPuL-13" value="Courses" style="shape=table;startSize=30;container=1;collapsible=0;childLayout=tableLayout;" vertex="1" parent="1">
          <mxGeometry x="200" y="150" width="350" height="70" as="geometry" />
        </mxCell>
        <mxCell id="nsTeJTZyOkKHgvpDhPuL-14" value="" style="shape=tableRow;horizontal=0;startSize=0;swimlaneHead=0;swimlaneBody=0;strokeColor=inherit;top=0;left=0;bottom=0;right=0;collapsible=0;dropTarget=0;fillColor=none;points=[[0,0.5],[1,0.5]];portConstraint=eastwest;" vertex="1" parent="nsTeJTZyOkKHgvpDhPuL-13">
          <mxGeometry y="30" width="350" height="40" as="geometry" />
        </mxCell>
        <mxCell id="nsTeJTZyOkKHgvpDhPuL-15" value="&lt;b&gt;&lt;u&gt;ID&lt;/u&gt;&lt;/b&gt;" style="shape=partialRectangle;html=1;whiteSpace=wrap;connectable=0;strokeColor=inherit;overflow=hidden;fillColor=none;top=0;left=0;bottom=0;right=0;pointerEvents=1;" vertex="1" parent="nsTeJTZyOkKHgvpDhPuL-14">
          <mxGeometry width="80" height="40" as="geometry">
            <mxRectangle width="80" height="40" as="alternateBounds" />
          </mxGeometry>
        </mxCell>
        <mxCell id="nsTeJTZyOkKHgvpDhPuL-16" value="Min Degree" style="shape=partialRectangle;html=1;whiteSpace=wrap;connectable=0;strokeColor=inherit;overflow=hidden;fillColor=none;top=0;left=0;bottom=0;right=0;pointerEvents=1;" vertex="1" parent="nsTeJTZyOkKHgvpDhPuL-14">
          <mxGeometry x="80" width="80" height="40" as="geometry">
            <mxRectangle width="80" height="40" as="alternateBounds" />
          </mxGeometry>
        </mxCell>
        <mxCell id="nsTeJTZyOkKHgvpDhPuL-17" value="Max Degree" style="shape=partialRectangle;html=1;whiteSpace=wrap;connectable=0;strokeColor=inherit;overflow=hidden;fillColor=none;top=0;left=0;bottom=0;right=0;pointerEvents=1;" vertex="1" parent="nsTeJTZyOkKHgvpDhPuL-14">
          <mxGeometry x="160" width="80" height="40" as="geometry">
            <mxRectangle width="80" height="40" as="alternateBounds" />
          </mxGeometry>
        </mxCell>
        <mxCell id="nsTeJTZyOkKHgvpDhPuL-18" value="Description" style="shape=partialRectangle;html=1;whiteSpace=wrap;connectable=0;strokeColor=inherit;overflow=hidden;fillColor=none;top=0;left=0;bottom=0;right=0;pointerEvents=1;" vertex="1" parent="nsTeJTZyOkKHgvpDhPuL-14">
          <mxGeometry x="240" width="110" height="40" as="geometry">
            <mxRectangle width="110" height="40" as="alternateBounds" />
          </mxGeometry>
        </mxCell>
        <mxCell id="nsTeJTZyOkKHgvpDhPuL-19" value="Instructor" style="shape=table;startSize=30;container=1;collapsible=0;childLayout=tableLayout;" vertex="1" parent="1">
          <mxGeometry x="200" y="280" width="240" height="70" as="geometry" />
        </mxCell>
        <mxCell id="nsTeJTZyOkKHgvpDhPuL-20" value="" style="shape=tableRow;horizontal=0;startSize=0;swimlaneHead=0;swimlaneBody=0;strokeColor=inherit;top=0;left=0;bottom=0;right=0;collapsible=0;dropTarget=0;fillColor=none;points=[[0,0.5],[1,0.5]];portConstraint=eastwest;" vertex="1" parent="nsTeJTZyOkKHgvpDhPuL-19">
          <mxGeometry y="30" width="240" height="40" as="geometry" />
        </mxCell>
        <mxCell id="nsTeJTZyOkKHgvpDhPuL-21" value="&lt;b&gt;&lt;u&gt;ID&lt;/u&gt;&lt;/b&gt;" style="shape=partialRectangle;html=1;whiteSpace=wrap;connectable=0;strokeColor=inherit;overflow=hidden;fillColor=none;top=0;left=0;bottom=0;right=0;pointerEvents=1;" vertex="1" parent="nsTeJTZyOkKHgvpDhPuL-20">
          <mxGeometry width="80" height="40" as="geometry">
            <mxRectangle width="80" height="40" as="alternateBounds" />
          </mxGeometry>
        </mxCell>
        <mxCell id="nsTeJTZyOkKHgvpDhPuL-22" value="Name" style="shape=partialRectangle;html=1;whiteSpace=wrap;connectable=0;strokeColor=inherit;overflow=hidden;fillColor=none;top=0;left=0;bottom=0;right=0;pointerEvents=1;" vertex="1" parent="nsTeJTZyOkKHgvpDhPuL-20">
          <mxGeometry x="80" width="80" height="40" as="geometry">
            <mxRectangle width="80" height="40" as="alternateBounds" />
          </mxGeometry>
        </mxCell>
        <mxCell id="nsTeJTZyOkKHgvpDhPuL-23" value="Salary" style="shape=partialRectangle;html=1;whiteSpace=wrap;connectable=0;strokeColor=inherit;overflow=hidden;fillColor=none;top=0;left=0;bottom=0;right=0;pointerEvents=1;" vertex="1" parent="nsTeJTZyOkKHgvpDhPuL-20">
          <mxGeometry x="160" width="80" height="40" as="geometry">
            <mxRectangle width="80" height="40" as="alternateBounds" />
          </mxGeometry>
        </mxCell>
        <mxCell id="nsTeJTZyOkKHgvpDhPuL-24" value="Exam" style="shape=table;startSize=30;container=1;collapsible=0;childLayout=tableLayout;" vertex="1" parent="1">
          <mxGeometry x="200" y="410" width="280" height="70" as="geometry" />
        </mxCell>
        <mxCell id="nsTeJTZyOkKHgvpDhPuL-25" value="" style="shape=tableRow;horizontal=0;startSize=0;swimlaneHead=0;swimlaneBody=0;strokeColor=inherit;top=0;left=0;bottom=0;right=0;collapsible=0;dropTarget=0;fillColor=none;points=[[0,0.5],[1,0.5]];portConstraint=eastwest;" vertex="1" parent="nsTeJTZyOkKHgvpDhPuL-24">
          <mxGeometry y="30" width="280" height="40" as="geometry" />
        </mxCell>
        <mxCell id="nsTeJTZyOkKHgvpDhPuL-26" value="&lt;b&gt;&lt;u&gt;ID&lt;/u&gt;&lt;/b&gt;" style="shape=partialRectangle;html=1;whiteSpace=wrap;connectable=0;strokeColor=inherit;overflow=hidden;fillColor=none;top=0;left=0;bottom=0;right=0;pointerEvents=1;" vertex="1" parent="nsTeJTZyOkKHgvpDhPuL-25">
          <mxGeometry width="93" height="40" as="geometry">
            <mxRectangle width="93" height="40" as="alternateBounds" />
          </mxGeometry>
        </mxCell>
        <mxCell id="nsTeJTZyOkKHgvpDhPuL-27" value="Name" style="shape=partialRectangle;html=1;whiteSpace=wrap;connectable=0;strokeColor=inherit;overflow=hidden;fillColor=none;top=0;left=0;bottom=0;right=0;pointerEvents=1;" vertex="1" parent="nsTeJTZyOkKHgvpDhPuL-25">
          <mxGeometry x="93" width="94" height="40" as="geometry">
            <mxRectangle width="94" height="40" as="alternateBounds" />
          </mxGeometry>
        </mxCell>
        <mxCell id="nsTeJTZyOkKHgvpDhPuL-28" value="Date" style="shape=partialRectangle;html=1;whiteSpace=wrap;connectable=0;strokeColor=inherit;overflow=hidden;fillColor=none;top=0;left=0;bottom=0;right=0;pointerEvents=1;" vertex="1" parent="nsTeJTZyOkKHgvpDhPuL-25">
          <mxGeometry x="187" width="93" height="40" as="geometry">
            <mxRectangle width="93" height="40" as="alternateBounds" />
          </mxGeometry>
        </mxCell>
        <mxCell id="nsTeJTZyOkKHgvpDhPuL-29" value="T &amp; F" style="shape=table;startSize=30;container=1;collapsible=0;childLayout=tableLayout;" vertex="1" parent="1">
          <mxGeometry x="200" y="520" width="160" height="70" as="geometry" />
        </mxCell>
        <mxCell id="nsTeJTZyOkKHgvpDhPuL-30" value="" style="shape=tableRow;horizontal=0;startSize=0;swimlaneHead=0;swimlaneBody=0;strokeColor=inherit;top=0;left=0;bottom=0;right=0;collapsible=0;dropTarget=0;fillColor=none;points=[[0,0.5],[1,0.5]];portConstraint=eastwest;" vertex="1" parent="nsTeJTZyOkKHgvpDhPuL-29">
          <mxGeometry y="30" width="160" height="40" as="geometry" />
        </mxCell>
        <mxCell id="nsTeJTZyOkKHgvpDhPuL-31" value="&lt;b&gt;&lt;u&gt;ID&lt;/u&gt;&lt;/b&gt;" style="shape=partialRectangle;html=1;whiteSpace=wrap;connectable=0;strokeColor=inherit;overflow=hidden;fillColor=none;top=0;left=0;bottom=0;right=0;pointerEvents=1;" vertex="1" parent="nsTeJTZyOkKHgvpDhPuL-30">
          <mxGeometry width="80" height="40" as="geometry">
            <mxRectangle width="80" height="40" as="alternateBounds" />
          </mxGeometry>
        </mxCell>
        <mxCell id="nsTeJTZyOkKHgvpDhPuL-32" value="Answer" style="shape=partialRectangle;html=1;whiteSpace=wrap;connectable=0;strokeColor=inherit;overflow=hidden;fillColor=none;top=0;left=0;bottom=0;right=0;pointerEvents=1;" vertex="1" parent="nsTeJTZyOkKHgvpDhPuL-30">
          <mxGeometry x="80" width="80" height="40" as="geometry">
            <mxRectangle width="80" height="40" as="alternateBounds" />
          </mxGeometry>
        </mxCell>
        <mxCell id="nsTeJTZyOkKHgvpDhPuL-33" value="Text" style="shape=table;startSize=30;container=1;collapsible=0;childLayout=tableLayout;" vertex="1" parent="1">
          <mxGeometry x="200" y="640" width="160" height="70" as="geometry" />
        </mxCell>
        <mxCell id="nsTeJTZyOkKHgvpDhPuL-34" value="" style="shape=tableRow;horizontal=0;startSize=0;swimlaneHead=0;swimlaneBody=0;strokeColor=inherit;top=0;left=0;bottom=0;right=0;collapsible=0;dropTarget=0;fillColor=none;points=[[0,0.5],[1,0.5]];portConstraint=eastwest;" vertex="1" parent="nsTeJTZyOkKHgvpDhPuL-33">
          <mxGeometry y="30" width="160" height="40" as="geometry" />
        </mxCell>
        <mxCell id="nsTeJTZyOkKHgvpDhPuL-35" value="&lt;b&gt;&lt;u&gt;ID&lt;/u&gt;&lt;/b&gt;" style="shape=partialRectangle;html=1;whiteSpace=wrap;connectable=0;strokeColor=inherit;overflow=hidden;fillColor=none;top=0;left=0;bottom=0;right=0;pointerEvents=1;" vertex="1" parent="nsTeJTZyOkKHgvpDhPuL-34">
          <mxGeometry width="80" height="40" as="geometry">
            <mxRectangle width="80" height="40" as="alternateBounds" />
          </mxGeometry>
        </mxCell>
        <mxCell id="nsTeJTZyOkKHgvpDhPuL-36" value="Answer" style="shape=partialRectangle;html=1;whiteSpace=wrap;connectable=0;strokeColor=inherit;overflow=hidden;fillColor=none;top=0;left=0;bottom=0;right=0;pointerEvents=1;" vertex="1" parent="nsTeJTZyOkKHgvpDhPuL-34">
          <mxGeometry x="80" width="80" height="40" as="geometry">
            <mxRectangle width="80" height="40" as="alternateBounds" />
          </mxGeometry>
        </mxCell>
        <mxCell id="nsTeJTZyOkKHgvpDhPuL-37" value="MCQ" style="shape=table;startSize=30;container=1;collapsible=0;childLayout=tableLayout;" vertex="1" parent="1">
          <mxGeometry x="200" y="770" width="90" height="70" as="geometry" />
        </mxCell>
        <mxCell id="nsTeJTZyOkKHgvpDhPuL-38" value="" style="shape=tableRow;horizontal=0;startSize=0;swimlaneHead=0;swimlaneBody=0;strokeColor=inherit;top=0;left=0;bottom=0;right=0;collapsible=0;dropTarget=0;fillColor=none;points=[[0,0.5],[1,0.5]];portConstraint=eastwest;" vertex="1" parent="nsTeJTZyOkKHgvpDhPuL-37">
          <mxGeometry y="30" width="90" height="40" as="geometry" />
        </mxCell>
        <mxCell id="nsTeJTZyOkKHgvpDhPuL-39" value="&lt;b&gt;&lt;u&gt;ID&lt;/u&gt;&lt;/b&gt;" style="shape=partialRectangle;html=1;whiteSpace=wrap;connectable=0;strokeColor=inherit;overflow=hidden;fillColor=none;top=0;left=0;bottom=0;right=0;pointerEvents=1;" vertex="1" parent="nsTeJTZyOkKHgvpDhPuL-38">
          <mxGeometry width="90" height="40" as="geometry">
            <mxRectangle width="90" height="40" as="alternateBounds" />
          </mxGeometry>
        </mxCell>
        <mxCell id="nsTeJTZyOkKHgvpDhPuL-40" value="MCQ Choises" style="shape=table;startSize=30;container=1;collapsible=0;childLayout=tableLayout;" vertex="1" parent="1">
          <mxGeometry x="200" y="890" width="160" height="70" as="geometry" />
        </mxCell>
        <mxCell id="nsTeJTZyOkKHgvpDhPuL-41" value="" style="shape=tableRow;horizontal=0;startSize=0;swimlaneHead=0;swimlaneBody=0;strokeColor=inherit;top=0;left=0;bottom=0;right=0;collapsible=0;dropTarget=0;fillColor=none;points=[[0,0.5],[1,0.5]];portConstraint=eastwest;" vertex="1" parent="nsTeJTZyOkKHgvpDhPuL-40">
          <mxGeometry y="30" width="160" height="40" as="geometry" />
        </mxCell>
        <mxCell id="nsTeJTZyOkKHgvpDhPuL-42" value="&lt;b&gt;&lt;u&gt;ID&lt;/u&gt;&lt;/b&gt;" style="shape=partialRectangle;html=1;whiteSpace=wrap;connectable=0;strokeColor=inherit;overflow=hidden;fillColor=none;top=0;left=0;bottom=0;right=0;pointerEvents=1;" vertex="1" parent="nsTeJTZyOkKHgvpDhPuL-41">
          <mxGeometry width="80" height="40" as="geometry">
            <mxRectangle width="80" height="40" as="alternateBounds" />
          </mxGeometry>
        </mxCell>
        <mxCell id="nsTeJTZyOkKHgvpDhPuL-43" value="Choise" style="shape=partialRectangle;html=1;whiteSpace=wrap;connectable=0;strokeColor=inherit;overflow=hidden;fillColor=none;top=0;left=0;bottom=0;right=0;pointerEvents=1;" vertex="1" parent="nsTeJTZyOkKHgvpDhPuL-41">
          <mxGeometry x="80" width="80" height="40" as="geometry">
            <mxRectangle width="80" height="40" as="alternateBounds" />
          </mxGeometry>
        </mxCell>
        <mxCell id="nsTeJTZyOkKHgvpDhPuL-45" value="Account" style="shape=table;startSize=30;container=1;collapsible=0;childLayout=tableLayout;" vertex="1" parent="1">
          <mxGeometry x="200" y="1140" width="250" height="70" as="geometry" />
        </mxCell>
        <mxCell id="nsTeJTZyOkKHgvpDhPuL-46" value="" style="shape=tableRow;horizontal=0;startSize=0;swimlaneHead=0;swimlaneBody=0;strokeColor=inherit;top=0;left=0;bottom=0;right=0;collapsible=0;dropTarget=0;fillColor=none;points=[[0,0.5],[1,0.5]];portConstraint=eastwest;" vertex="1" parent="nsTeJTZyOkKHgvpDhPuL-45">
          <mxGeometry y="30" width="250" height="40" as="geometry" />
        </mxCell>
        <mxCell id="nsTeJTZyOkKHgvpDhPuL-47" value="UserName" style="shape=partialRectangle;html=1;whiteSpace=wrap;connectable=0;strokeColor=inherit;overflow=hidden;fillColor=none;top=0;left=0;bottom=0;right=0;pointerEvents=1;" vertex="1" parent="nsTeJTZyOkKHgvpDhPuL-46">
          <mxGeometry width="83" height="40" as="geometry">
            <mxRectangle width="83" height="40" as="alternateBounds" />
          </mxGeometry>
        </mxCell>
        <mxCell id="nsTeJTZyOkKHgvpDhPuL-48" value="Email" style="shape=partialRectangle;html=1;whiteSpace=wrap;connectable=0;strokeColor=inherit;overflow=hidden;fillColor=none;top=0;left=0;bottom=0;right=0;pointerEvents=1;" vertex="1" parent="nsTeJTZyOkKHgvpDhPuL-46">
          <mxGeometry x="83" width="84" height="40" as="geometry">
            <mxRectangle width="84" height="40" as="alternateBounds" />
          </mxGeometry>
        </mxCell>
        <mxCell id="nsTeJTZyOkKHgvpDhPuL-49" value="Password" style="shape=partialRectangle;html=1;whiteSpace=wrap;connectable=0;strokeColor=inherit;overflow=hidden;fillColor=none;top=0;left=0;bottom=0;right=0;pointerEvents=1;" vertex="1" parent="nsTeJTZyOkKHgvpDhPuL-46">
          <mxGeometry x="167" width="83" height="40" as="geometry">
            <mxRectangle width="83" height="40" as="alternateBounds" />
          </mxGeometry>
        </mxCell>
        <mxCell id="nsTeJTZyOkKHgvpDhPuL-57" style="edgeStyle=orthogonalEdgeStyle;rounded=0;orthogonalLoop=1;jettySize=auto;html=1;exitX=0;exitY=0.75;exitDx=0;exitDy=0;entryX=0;entryY=0.5;entryDx=0;entryDy=0;" edge="1" parent="1" source="nsTeJTZyOkKHgvpDhPuL-50" target="nsTeJTZyOkKHgvpDhPuL-38">
          <mxGeometry relative="1" as="geometry" />
        </mxCell>
        <mxCell id="nsTeJTZyOkKHgvpDhPuL-64" style="edgeStyle=orthogonalEdgeStyle;rounded=0;orthogonalLoop=1;jettySize=auto;html=1;entryX=0;entryY=0.5;entryDx=0;entryDy=0;" edge="1" parent="1" source="nsTeJTZyOkKHgvpDhPuL-50" target="nsTeJTZyOkKHgvpDhPuL-34">
          <mxGeometry relative="1" as="geometry">
            <Array as="points">
              <mxPoint x="70" y="1045" />
              <mxPoint x="70" y="690" />
            </Array>
          </mxGeometry>
        </mxCell>
        <mxCell id="nsTeJTZyOkKHgvpDhPuL-50" value="Instructor_Exam_Course" style="shape=table;startSize=30;container=1;collapsible=0;childLayout=tableLayout;" vertex="1" parent="1">
          <mxGeometry x="200" y="1010" width="387" height="70" as="geometry" />
        </mxCell>
        <mxCell id="nsTeJTZyOkKHgvpDhPuL-51" value="" style="shape=tableRow;horizontal=0;startSize=0;swimlaneHead=0;swimlaneBody=0;strokeColor=inherit;top=0;left=0;bottom=0;right=0;collapsible=0;dropTarget=0;fillColor=none;points=[[0,0.5],[1,0.5]];portConstraint=eastwest;" vertex="1" parent="nsTeJTZyOkKHgvpDhPuL-50">
          <mxGeometry y="30" width="387" height="40" as="geometry" />
        </mxCell>
        <mxCell id="nsTeJTZyOkKHgvpDhPuL-52" value="&lt;u&gt;&lt;b&gt;ExamID&lt;/b&gt;&lt;/u&gt;" style="shape=partialRectangle;html=1;whiteSpace=wrap;connectable=0;strokeColor=inherit;overflow=hidden;fillColor=none;top=0;left=0;bottom=0;right=0;pointerEvents=1;" vertex="1" parent="nsTeJTZyOkKHgvpDhPuL-51">
          <mxGeometry width="97" height="40" as="geometry">
            <mxRectangle width="97" height="40" as="alternateBounds" />
          </mxGeometry>
        </mxCell>
        <mxCell id="nsTeJTZyOkKHgvpDhPuL-53" value="&lt;b&gt;&lt;u&gt;CourseID&lt;/u&gt;&lt;/b&gt;" style="shape=partialRectangle;html=1;whiteSpace=wrap;connectable=0;strokeColor=inherit;overflow=hidden;fillColor=none;top=0;left=0;bottom=0;right=0;pointerEvents=1;" vertex="1" parent="nsTeJTZyOkKHgvpDhPuL-51">
          <mxGeometry x="97" width="96" height="40" as="geometry">
            <mxRectangle width="96" height="40" as="alternateBounds" />
          </mxGeometry>
        </mxCell>
        <mxCell id="nsTeJTZyOkKHgvpDhPuL-54" value="&lt;b&gt;&lt;u&gt;InstructorID&lt;/u&gt;&lt;/b&gt;" style="shape=partialRectangle;html=1;whiteSpace=wrap;connectable=0;strokeColor=inherit;overflow=hidden;fillColor=none;top=0;left=0;bottom=0;right=0;pointerEvents=1;" vertex="1" parent="nsTeJTZyOkKHgvpDhPuL-51">
          <mxGeometry x="193" width="97" height="40" as="geometry">
            <mxRectangle width="97" height="40" as="alternateBounds" />
          </mxGeometry>
        </mxCell>
        <mxCell id="nsTeJTZyOkKHgvpDhPuL-55" value="Exam_Degree" style="shape=partialRectangle;html=1;whiteSpace=wrap;connectable=0;strokeColor=inherit;overflow=hidden;fillColor=none;top=0;left=0;bottom=0;right=0;pointerEvents=1;" vertex="1" parent="nsTeJTZyOkKHgvpDhPuL-51">
          <mxGeometry x="290" width="97" height="40" as="geometry">
            <mxRectangle width="97" height="40" as="alternateBounds" />
          </mxGeometry>
        </mxCell>
        <mxCell id="nsTeJTZyOkKHgvpDhPuL-56" style="edgeStyle=orthogonalEdgeStyle;rounded=0;orthogonalLoop=1;jettySize=auto;html=1;exitX=0;exitY=0.5;exitDx=0;exitDy=0;entryX=0;entryY=0.5;entryDx=0;entryDy=0;" edge="1" parent="1" source="nsTeJTZyOkKHgvpDhPuL-51" target="nsTeJTZyOkKHgvpDhPuL-41">
          <mxGeometry relative="1" as="geometry">
            <Array as="points">
              <mxPoint x="200" y="1070" />
              <mxPoint x="130" y="1070" />
              <mxPoint x="130" y="940" />
            </Array>
          </mxGeometry>
        </mxCell>
        <mxCell id="nsTeJTZyOkKHgvpDhPuL-58" style="edgeStyle=orthogonalEdgeStyle;rounded=0;orthogonalLoop=1;jettySize=auto;html=1;exitX=0;exitY=0.5;exitDx=0;exitDy=0;entryX=0;entryY=0.5;entryDx=0;entryDy=0;" edge="1" parent="1" source="nsTeJTZyOkKHgvpDhPuL-41" target="nsTeJTZyOkKHgvpDhPuL-38">
          <mxGeometry relative="1" as="geometry">
            <Array as="points">
              <mxPoint x="200" y="950" />
              <mxPoint x="150" y="950" />
              <mxPoint x="150" y="810" />
              <mxPoint x="200" y="810" />
            </Array>
          </mxGeometry>
        </mxCell>
      </root>
    </mxGraphModel>
  </diagram>
</mxfile>
